{
    "asset" : {
        "generator" : "Khronos glTF Blender I/O v1.8.19",
        "version" : "2.0"
    },
    "scene" : 0,
    "scenes" : [
        {
            "name" : "Scene",
            "nodes" : [
                0,
                1
            ]
        }
    ],
    "nodes" : [
        {
            "mesh" : 0,
            "name" : "Broccoli_Right"
        },
        {
            "mesh" : 1,
            "name" : "Broccoli_Left"
        }
    ],
    "materials" : [
        {
            "doubleSided" : true,
            "name" : "Broccoli_M",
            "normalTexture" : {
                "index" : 0
            },
            "pbrMetallicRoughness" : {
                "baseColorTexture" : {
                    "index" : 1
                },
                "metallicFactor" : 0.05000000074505806,
                "roughnessFactor" : 0.9577051401138306
            }
        }
    ],
    "meshes" : [
        {
            "name" : "Broccoli_Right",
            "primitives" : [
                {
                    "attributes" : {
                        "POSITION" : 0,
                        "NORMAL" : 1,
                        "TEXCOORD_0" : 2
                    },
                    "indices" : 3,
                    "material" : 0
                }
            ]
        },
        {
            "name" : "Broccoli_Left",
            "primitives" : [
                {
                    "attributes" : {
                        "POSITION" : 4,
                        "NORMAL" : 5,
                        "TEXCOORD_0" : 6
                    },
                    "indices" : 7,
                    "material" : 0
                }
            ]
        }
    ],
    "textures" : [
        {
            "sampler" : 0,
            "source" : 0
        },
        {
            "sampler" : 0,
            "source" : 1
        }
    ],
    "images" : [
        {
            "bufferView" : 4,
            "mimeType" : "image/png",
            "name" : "Image_63"
        },
        {
            "bufferView" : 5,
            "mimeType" : "image/jpeg",
            "name" : "Image_62"
        }
    ],
    "accessors" : [
        {
            "bufferView" : 0,
            "componentType" : 5126,
            "count" : 840,
            "max" : [
                0.42899760603904724,
                0.6491409540176392,
                0.5517640113830566
            ],
            "min" : [
                -0.007221685256808996,
                -0.5271008610725403,
                -0.48021841049194336
            ],
            "type" : "VEC3"
        },
        {
            "bufferView" : 1,
            "componentType" : 5126,
            "count" : 840,
            "type" : "VEC3"
        },
        {
            "bufferView" : 2,
            "componentType" : 5126,
            "count" : 840,
            "type" : "VEC2"
        },
        {
            "bufferView" : 3,
            "componentType" : 5123,
            "count" : 1941,
            "type" : "SCALAR"
        },
        {
            "bufferView" : 6,
            "componentType" : 5126,
            "count" : 840,
            "max" : [
                0.007221714593470097,
                0.6491409540176392,
                0.5517640113830566
            ],
            "min" : [
                -0.428997665643692,
                -0.5271008610725403,
                -0.48021841049194336
            ],
            "type" : "VEC3"
        },
        {
            "bufferView" : 7,
            "componentType" : 5126,
            "count" : 840,
            "type" : "VEC3"
        },
        {
            "bufferView" : 8,
            "componentType" : 5126,
            "count" : 840,
            "type" : "VEC2"
        },
        {
            "bufferView" : 9,
            "componentType" : 5123,
            "count" : 1941,
            "type" : "SCALAR"
        }
    ],
    "bufferViews" : [
        {
            "buffer" : 0,
            "byteLength" : 10080,
            "byteOffset" : 0
        },
        {
            "buffer" : 0,
            "byteLength" : 10080,
            "byteOffset" : 10080
        },
        {
            "buffer" : 0,
            "byteLength" : 6720,
            "byteOffset" : 20160
        },
        {
            "buffer" : 0,
            "byteLength" : 3882,
            "byteOffset" : 26880
        },
        {
            "buffer" : 0,
            "byteLength" : 2117417,
            "byteOffset" : 30764
        },
        {
            "buffer" : 0,
            "byteLength" : 617307,
            "byteOffset" : 2148184
        },
        {
            "buffer" : 0,
            "byteLength" : 10080,
            "byteOffset" : 2765492
        },
        {
            "buffer" : 0,
            "byteLength" : 10080,
            "byteOffset" : 2775572
        },
        {
            "buffer" : 0,
            "byteLength" : 6720,
            "byteOffset" : 2785652
        },
        {
            "buffer" : 0,
            "byteLength" : 3882,
            "byteOffset" : 2792372
        }
    ],
    "samplers" : [
        {
            "magFilter" : 9729,
            "minFilter" : 9987
        }
    ],
    "buffers" : [
        {
            "byteLength" : 2796256,
            "uri" : "data:application/octet-stream;base64,"
        }
    ]
}
