{
    "asset" : {
        "generator" : "Khronos glTF Blender I/O v1.8.19",
        "version" : "2.0"
    },
    "scene" : 0,
    "scenes" : [
        {
            "name" : "Scene",
            "nodes" : [
                0,
                1
            ]
        }
    ],
    "nodes" : [
        {
            "mesh" : 0,
            "name" : "Pepper_Left"
        },
        {
            "mesh" : 1,
            "name" : "Pepper_Right"
        }
    ],
    "materials" : [
        {
            "doubleSided" : true,
            "name" : "Pepper_M",
            "normalTexture" : {
                "index" : 0
            },
            "pbrMetallicRoughness" : {
                "baseColorTexture" : {
                    "index" : 1
                },
                "metallicFactor" : 0.05000000074505806,
                "roughnessFactor" : 0.9577051401138306
            }
        }
    ],
    "meshes" : [
        {
            "name" : "Pepper_Left",
            "primitives" : [
                {
                    "attributes" : {
                        "POSITION" : 0,
                        "NORMAL" : 1,
                        "TEXCOORD_0" : 2
                    },
                    "indices" : 3,
                    "material" : 0
                }
            ]
        },
        {
            "name" : "Pepper_Right",
            "primitives" : [
                {
                    "attributes" : {
                        "POSITION" : 4,
                        "NORMAL" : 5,
                        "TEXCOORD_0" : 6
                    },
                    "indices" : 7,
                    "material" : 0
                }
            ]
        }
    ],
    "textures" : [
        {
            "sampler" : 0,
            "source" : 0
        },
        {
            "sampler" : 0,
            "source" : 1
        }
    ],
    "images" : [
        {
            "bufferView" : 4,
            "mimeType" : "image/png",
            "name" : "Image_69"
        },
        {
            "bufferView" : 5,
            "mimeType" : "image/jpeg",
            "name" : "Image_68"
        }
    ],
    "accessors" : [
        {
            "bufferView" : 0,
            "componentType" : 5126,
            "count" : 760,
            "max" : [
                0.002206691773608327,
                0.6684786081314087,
                0.4690004587173462
            ],
            "min" : [
                -0.5551521182060242,
                -0.46326491236686707,
                -0.5555422902107239
            ],
            "type" : "VEC3"
        },
        {
            "bufferView" : 1,
            "componentType" : 5126,
            "count" : 760,
            "type" : "VEC3"
        },
        {
            "bufferView" : 2,
            "componentType" : 5126,
            "count" : 760,
            "type" : "VEC2"
        },
        {
            "bufferView" : 3,
            "componentType" : 5123,
            "count" : 2208,
            "type" : "SCALAR"
        },
        {
            "bufferView" : 6,
            "componentType" : 5126,
            "count" : 760,
            "max" : [
                0.5076498985290527,
                0.6684786081314087,
                0.4690004587173462
            ],
            "min" : [
                0.0019120415672659874,
                -0.46326491236686707,
                -0.5555422902107239
            ],
            "type" : "VEC3"
        },
        {
            "bufferView" : 7,
            "componentType" : 5126,
            "count" : 760,
            "type" : "VEC3"
        },
        {
            "bufferView" : 8,
            "componentType" : 5126,
            "count" : 760,
            "type" : "VEC2"
        },
        {
            "bufferView" : 9,
            "componentType" : 5123,
            "count" : 2208,
            "type" : "SCALAR"
        }
    ],
    "bufferViews" : [
        {
            "buffer" : 0,
            "byteLength" : 9120,
            "byteOffset" : 0
        },
        {
            "buffer" : 0,
            "byteLength" : 9120,
            "byteOffset" : 9120
        },
        {
            "buffer" : 0,
            "byteLength" : 6080,
            "byteOffset" : 18240
        },
        {
            "buffer" : 0,
            "byteLength" : 4416,
            "byteOffset" : 24320
        },
        {
            "buffer" : 0,
            "byteLength" : 850848,
            "byteOffset" : 28736
        },
        {
            "buffer" : 0,
            "byteLength" : 477702,
            "byteOffset" : 879584
        },
        {
            "buffer" : 0,
            "byteLength" : 9120,
            "byteOffset" : 1357288
        },
        {
            "buffer" : 0,
            "byteLength" : 9120,
            "byteOffset" : 1366408
        },
        {
            "buffer" : 0,
            "byteLength" : 6080,
            "byteOffset" : 1375528
        },
        {
            "buffer" : 0,
            "byteLength" : 4416,
            "byteOffset" : 1381608
        }
    ],
    "samplers" : [
        {
            "magFilter" : 9729,
            "minFilter" : 9987
        }
    ],
    "buffers" : [
        {
            "byteLength" : 1386024,
            "uri" : "data:application/octet-stream;base64,"
        }
    ]
}
