{
    "asset" : {
        "generator" : "Khronos glTF Blender I/O v1.8.19",
        "version" : "2.0"
    },
    "scene" : 0,
    "scenes" : [
        {
            "name" : "Scene",
            "nodes" : [
                0,
                1
            ]
        }
    ],
    "nodes" : [
        {
            "mesh" : 0,
            "name" : "Pumpkin_Left"
        },
        {
            "mesh" : 1,
            "name" : "Pumpkin_Right"
        }
    ],
    "materials" : [
        {
            "doubleSided" : true,
            "name" : "Pumpkin_M",
            "normalTexture" : {
                "index" : 0
            },
            "pbrMetallicRoughness" : {
                "baseColorTexture" : {
                    "index" : 1
                },
                "metallicFactor" : 0.05000000074505806,
                "roughnessFactor" : 0.9577051401138306
            }
        }
    ],
    "meshes" : [
        {
            "name" : "Pumpkin_Left",
            "primitives" : [
                {
                    "attributes" : {
                        "POSITION" : 0,
                        "NORMAL" : 1,
                        "TEXCOORD_0" : 2
                    },
                    "indices" : 3,
                    "material" : 0
                }
            ]
        },
        {
            "name" : "Pumpkin_Right",
            "primitives" : [
                {
                    "attributes" : {
                        "POSITION" : 4,
                        "NORMAL" : 5,
                        "TEXCOORD_0" : 6
                    },
                    "indices" : 7,
                    "material" : 0
                }
            ]
        }
    ],
    "textures" : [
        {
            "sampler" : 0,
            "source" : 0
        },
        {
            "sampler" : 0,
            "source" : 1
        }
    ],
    "images" : [
        {
            "bufferView" : 4,
            "mimeType" : "image/png",
            "name" : "Image_151"
        },
        {
            "bufferView" : 5,
            "mimeType" : "image/jpeg",
            "name" : "Image_150"
        }
    ],
    "accessors" : [
        {
            "bufferView" : 0,
            "componentType" : 5126,
            "count" : 653,
            "max" : [
                0.003153465688228607,
                0.41829395294189453,
                0.5237836241722107
            ],
            "min" : [
                -0.5030801296234131,
                -0.37780430912971497,
                -0.5358922481536865
            ],
            "type" : "VEC3"
        },
        {
            "bufferView" : 1,
            "componentType" : 5126,
            "count" : 653,
            "type" : "VEC3"
        },
        {
            "bufferView" : 2,
            "componentType" : 5126,
            "count" : 653,
            "type" : "VEC2"
        },
        {
            "bufferView" : 3,
            "componentType" : 5123,
            "count" : 1986,
            "type" : "SCALAR"
        },
        {
            "bufferView" : 6,
            "componentType" : 5126,
            "count" : 653,
            "max" : [
                0.5030801296234131,
                0.41829395294189453,
                0.5237836241722107
            ],
            "min" : [
                -0.003153465688228607,
                -0.37780430912971497,
                -0.5358922481536865
            ],
            "type" : "VEC3"
        },
        {
            "bufferView" : 7,
            "componentType" : 5126,
            "count" : 653,
            "type" : "VEC3"
        },
        {
            "bufferView" : 8,
            "componentType" : 5126,
            "count" : 653,
            "type" : "VEC2"
        },
        {
            "bufferView" : 9,
            "componentType" : 5123,
            "count" : 1986,
            "type" : "SCALAR"
        }
    ],
    "bufferViews" : [
        {
            "buffer" : 0,
            "byteLength" : 7836,
            "byteOffset" : 0
        },
        {
            "buffer" : 0,
            "byteLength" : 7836,
            "byteOffset" : 7836
        },
        {
            "buffer" : 0,
            "byteLength" : 5224,
            "byteOffset" : 15672
        },
        {
            "buffer" : 0,
            "byteLength" : 3972,
            "byteOffset" : 20896
        },
        {
            "buffer" : 0,
            "byteLength" : 1595298,
            "byteOffset" : 24868
        },
        {
            "buffer" : 0,
            "byteLength" : 458173,
            "byteOffset" : 1620168
        },
        {
            "buffer" : 0,
            "byteLength" : 7836,
            "byteOffset" : 2078344
        },
        {
            "buffer" : 0,
            "byteLength" : 7836,
            "byteOffset" : 2086180
        },
        {
            "buffer" : 0,
            "byteLength" : 5224,
            "byteOffset" : 2094016
        },
        {
            "buffer" : 0,
            "byteLength" : 3972,
            "byteOffset" : 2099240
        }
    ],
    "samplers" : [
        {
            "magFilter" : 9729,
            "minFilter" : 9987
        }
    ],
    "buffers" : [
        {
            "byteLength" : 2103212,
            "uri" : "data:application/octet-stream;base64,"
        }
    ]
}
